<svg width="1532" height="510" viewBox="0 0 1532 510" fill="none" xmlns="http://www.w3.org/2000/svg">
<g opacity="0.25">
<path d="M144.249 119.093C118.34 142.212 74.9254 147.115 0 147.115V104.382C128.844 103.681 148.45 81.2637 154.052 16.8132H194.666V456.058H317.908V500.893H0V456.058H144.249V119.093Z" fill="white"/>
<path d="M520.003 292.83V219.973H592.128V292.83H520.003ZM389.059 261.305C389.059 127.5 431.073 7.70603 557.116 7.70603C683.159 7.70603 723.772 127.5 723.772 261.305C723.772 395.11 683.159 510 557.116 510C431.073 510 389.059 395.11 389.059 261.305ZM442.277 261.305C442.277 369.89 463.984 465.165 557.116 465.165C649.547 465.165 670.554 368.489 670.554 261.305C670.554 154.821 649.547 52.5412 557.116 52.5412C463.284 52.5412 442.277 154.121 442.277 261.305Z" fill="white"/>
<path d="M828.535 500.893V0H874.05V315.247L1068.72 143.613H1124.74L974.184 276.017L1145.74 500.893H1091.12L942.673 303.338L874.05 363.585V500.893H828.535Z" fill="white"/>
<path d="M1212.69 500.893V0H1383.55C1465.48 0 1515.19 47.6374 1515.19 126.099C1515.19 184.945 1486.48 216.47 1449.37 231.882V233.283C1496.29 244.492 1532 287.225 1532 357.28C1532 451.854 1475.98 500.893 1393.35 500.893H1212.69ZM1263.11 456.058H1389.85C1452.17 456.058 1478.78 416.126 1478.78 357.28C1478.78 298.434 1447.27 259.904 1398.95 259.904H1263.11V456.058ZM1263.11 215.069H1386.35C1438.17 215.069 1461.98 180.742 1461.98 131.003C1461.98 79.1621 1435.37 44.8352 1385.65 44.8352H1263.11V215.069Z" fill="white"/>
</g>
</svg>
