<svg width="32" height="32" viewBox="0 0 32 32" fill="none" xmlns="http://www.w3.org/2000/svg">
<g clip-path="url(#clip0_517_107)">
<path d="M28.9498 18.29V15.24H25.8998V12.19H24.3798V10.67H22.8598V12.19H16.7598V13.72H18.2898V15.24H19.8098V18.29H18.2898V19.81H16.7598V30.48H19.8098V28.96H21.3298V27.43H24.3798V25.91H25.8998V28.96H27.4298V22.86H25.8998V16.77H27.4298V19.81H31.9998V18.29H28.9498ZM19.8098 27.43H18.2898V25.91H19.8098V27.43ZM24.3798 22.86H22.8598V24.39H21.3298V22.86H19.8098V21.34H21.3298V19.81H22.8598V21.34H24.3798V22.86ZM24.3798 15.24H22.8598V13.72H24.3798V15.24Z" fill="#C35466"/>
<path d="M27.4299 6.10002H30.4799V4.58002H25.8999V9.15002H24.3799V10.67H27.4299V6.10002Z" fill="#C35466"/>
<path d="M25.8999 28.96H24.3799V32H25.8999V28.96Z" fill="#C35466"/>
<path d="M22.8601 21.34H21.3301V22.86H22.8601V21.34Z" fill="#C35466"/>
<path d="M22.8596 6.09998H21.3296V9.14998H10.6696V6.09998H9.13965V10.67H22.8596V6.09998Z" fill="#C35466"/>
<path d="M22.8601 0H21.3301V1.53H22.8601V0Z" fill="#C35466"/>
<path d="M21.3296 4.58002H19.8096V6.10002H21.3296V4.58002Z" fill="#C35466"/>
<path d="M21.3296 1.53003H19.8096V3.05003H21.3296V1.53003Z" fill="#C35466"/>
<path d="M18.2898 15.24H16.7598V18.29H18.2898V15.24Z" fill="#C35466"/>
<path d="M18.2898 6.09998H16.7598V7.61998H18.2898V6.09998Z" fill="#C35466"/>
<path d="M15.24 15.24H13.71V18.29H15.24V15.24Z" fill="#C35466"/>
<path d="M15.24 6.09998H13.71V7.61998H15.24V6.09998Z" fill="#C35466"/>
<path d="M19.8104 3.04999H12.1904V4.57999H19.8104V3.04999Z" fill="#C35466"/>
<path d="M12.1899 4.58002H10.6699V6.10002H12.1899V4.58002Z" fill="#C35466"/>
<path d="M12.1899 1.53003H10.6699V3.05003H12.1899V1.53003Z" fill="#C35466"/>
<path d="M10.6696 21.34H9.13965V22.86H10.6696V21.34Z" fill="#C35466"/>
<path d="M10.6696 0H9.13965V1.53H10.6696V0Z" fill="#C35466"/>
<path d="M7.62 12.19H6.1V15.24H3.05V18.29H0V19.81H4.57V16.77H6.1V22.86H4.57V28.96H6.1V25.91H7.62V27.43H10.67V28.96H12.19V30.48H15.24V19.81H13.71V18.29H12.19V15.24H13.71V13.72H15.24V12.19H9.14V10.67H7.62V12.19ZM13.71 25.91V27.43H12.19V25.91H13.71ZM10.67 19.81V21.34H12.19V22.86H10.67V24.39H9.14V22.86H7.62V21.34H9.14V19.81H10.67ZM9.14 15.24H7.62V13.72H9.14V15.24Z" fill="#C35466"/>
<path d="M7.61961 28.96H6.09961V32H7.61961V28.96Z" fill="#C35466"/>
<path d="M6.09953 9.15002V4.58002H1.51953V6.10002H4.56953V10.67H7.61953V9.15002H6.09953Z" fill="#C35466"/>
</g>
<defs>
<clipPath id="clip0_517_107">
<rect width="32" height="32" fill="white"/>
</clipPath>
</defs>
</svg>
