<svg width="32" height="32" viewBox="0 0 32 32" fill="none" xmlns="http://www.w3.org/2000/svg">
<g clip-path="url(#clip0_485_109)">
<path d="M30.48 28.95H28.96V30.48H18.29V27.43H27.43V16.76H28.96V15.24H25.91V3.04999H24.39V13.71H22.86V15.24H10.67V13.71H9.15V15.24H0V28.95H1.53V27.43H13.72V28.95H15.24V27.43H16.77V28.95H15.24V30.48H3.05V32H32V18.29H30.48V28.95ZM12.2 25.9H1.53V16.76H12.2V25.9ZM15.24 25.9V16.76H25.91V25.9H15.24Z" fill="white"/>
<path d="M30.48 16.76H28.96V18.29H30.48V16.76Z" fill="white"/>
<path d="M28.9597 27.43H27.4297V28.95H28.9597V27.43Z" fill="white"/>
<path d="M24.3904 1.52002H22.8604V3.05002H24.3904V1.52002Z" fill="white"/>
<path d="M22.8598 19.81H21.3398V21.33H22.8598V19.81Z" fill="#CED65E"/>
<path d="M22.8598 12.19H21.3398V13.71H22.8598V12.19Z" fill="white"/>
<path d="M21.3396 18.29H19.8096V19.81H21.3396V18.29Z" fill="#CED65E"/>
<path d="M22.8595 22.86H18.2895V21.33H16.7695V24.38H24.3895V21.33H22.8595V22.86Z" fill="#CED65E"/>
<path d="M19.81 19.81H18.29V21.33H19.81V19.81Z" fill="#CED65E"/>
<path d="M16.7699 3.04999H15.2399V4.56999H13.7199V3.04999H12.1999V4.56999H10.6699V6.09999H12.1999V7.61999H13.7199V9.13999H15.2399V7.61999H16.7699V6.09999H18.2899V4.56999H16.7699V3.04999Z" fill="#C35466"/>
<path d="M21.3401 12.19V1.52H22.8601V0H7.62012V13.71H9.15012V12.19H21.3401ZM9.15012 1.52H19.8101V10.67H9.15012V1.52Z" fill="white"/>
<path d="M9.15012 19.81H7.62012V22.86H9.15012V19.81Z" fill="#0BCFC5"/>
<path d="M7.62008 18.29H4.58008V19.81H7.62008V18.29Z" fill="#0BCFC5"/>
<path d="M7.62008 22.86H4.58008V24.38H7.62008V22.86Z" fill="#0BCFC5"/>
<path d="M4.5798 19.81H3.0498V22.86H4.5798V19.81Z" fill="#0BCFC5"/>
<path d="M3.05027 28.95H1.53027V30.48H3.05027V28.95Z" fill="white"/>
</g>
<defs>
<clipPath id="clip0_485_109">
<rect width="32" height="32" fill="white"/>
</clipPath>
</defs>
</svg>
