<svg width="33" height="33" viewBox="0 0 33 33" fill="none" xmlns="http://www.w3.org/2000/svg">
<path d="M31.4276 23.5745H26.7149V21.9967H28.2823V20.4292H4.71852V21.9967H6.29116V23.5745H1.57324V33H31.4276V23.5745ZM7.85349 21.9967H25.1371V23.5745H7.85349V21.9967ZM29.8601 31.4325H3.14073V25.142H29.8601V31.4325Z" fill="white"/>
<path d="M29.859 1.56934H28.2812V20.4307H29.859V1.56934Z" fill="white"/>
<path d="M26.7135 26.709H18.8555V28.2868H26.7135V26.709Z" fill="white"/>
<path d="M20.423 11.0042H18.8555V12.5716H20.423V11.0042Z" fill="#C35466"/>
<path d="M20.423 7.85693H18.8555V9.42442H20.423V7.85693Z" fill="#C35466"/>
<path d="M18.8573 12.5723H14.1445V14.1397H18.8573V12.5723Z" fill="#C35466"/>
<path d="M14.1442 11.0042H12.5664V12.5716H14.1442V11.0042Z" fill="#C35466"/>
<path d="M14.1432 7.86072H12.5654V9.4282H14.1432V7.86072Z" fill="#C35466"/>
<path d="M6.29102 18.8613H26.7199V3.14526H6.29102V18.8613ZM7.85334 4.71275H25.1369V17.2836H7.85334V4.71275Z" fill="white"/>
<path d="M9.43141 26.709H6.28613V29.8543H9.43141V26.709Z" fill="white"/>
<path d="M28.2826 0.000976562H4.71875V1.56846H28.2826V0.000976562Z" fill="white"/>
<path d="M4.71842 1.56934H3.14062V20.4307H4.71842V1.56934Z" fill="white"/>
</svg>
