<svg width="32" height="32" viewBox="0 0 32 32" fill="none" xmlns="http://www.w3.org/2000/svg">
<g clip-path="url(#clip0_435_107)">
<path d="M31.24 1.53003H29.71V19.81H31.24V1.53003Z" fill="white"/>
<path d="M2.27977 30.48V28.96H0.759766V32H31.2398V28.96H29.7098V30.48H2.27977Z" fill="white"/>
<path d="M29.7095 27.43H28.1895V28.96H29.7095V27.43Z" fill="white"/>
<path d="M28.1899 25.91H26.6699V27.43H28.1899V25.91Z" fill="white"/>
<path d="M6.8593 22.86V24.38H25.1393V22.86H20.5693V21.34H29.7093V19.81H2.2793V21.34H11.4293V22.86H6.8593ZM12.9493 21.34H19.0493V22.86H12.9493V21.34Z" fill="white"/>
<path d="M26.6696 24.38H25.1396V25.91H26.6696V24.38Z" fill="white"/>
<path d="M28.1896 3.04999H3.80957V18.29H28.1896V3.04999ZM26.6696 16.76H5.32957V4.56999H26.6696V16.76Z" fill="#0BCFC5"/>
<path d="M25.1401 27.43H23.6201V28.96H25.1401V27.43Z" fill="white"/>
<path d="M23.6198 25.91H22.0898V27.43H23.6198V25.91Z" fill="white"/>
<path d="M19.0495 10.67H20.5695V12.19H22.0895V10.67H23.6195V9.14998H25.1395V7.61998H23.6195V6.09998H22.0895V7.61998H20.5695V6.09998H19.0495V7.61998H17.5195V9.14998H19.0495V10.67Z" fill="#C35466"/>
<path d="M20.5698 27.43H19.0498V28.96H20.5698V27.43Z" fill="white"/>
<path d="M19.0495 25.91H17.5195V27.43H19.0495V25.91Z" fill="white"/>
<path d="M15.9997 27.43H14.4697V28.96H15.9997V27.43Z" fill="white"/>
<path d="M14.4702 25.91H12.9502V27.43H14.4702V25.91Z" fill="white"/>
<path d="M12.9497 27.43H11.4297V28.96H12.9497V27.43Z" fill="white"/>
<path d="M9.89988 25.91H8.37988V27.43H9.89988V25.91Z" fill="white"/>
<path d="M8.37937 27.43H6.85938V28.96H8.37937V27.43Z" fill="white"/>
<path d="M6.86008 24.38H5.33008V25.91H6.86008V24.38Z" fill="white"/>
<path d="M5.32957 25.91H3.80957V27.43H5.32957V25.91Z" fill="white"/>
<path d="M29.7093 0H2.2793V1.53H29.7093V0Z" fill="white"/>
<path d="M3.8093 27.43H2.2793V28.96H3.8093V27.43Z" fill="white"/>
<path d="M2.27977 1.53003H0.759766V19.81H2.27977V1.53003Z" fill="white"/>
</g>
<defs>
<clipPath id="clip0_435_107">
<rect width="32" height="32" fill="white"/>
</clipPath>
</defs>
</svg>
