<svg width="32" height="32" viewBox="0 0 32 32" fill="#B8B8B8" xmlns="http://www.w3.org/2000/svg">
    <path
        d="M4.56492 0V1.53H3.04492V30.48H4.56492V32H27.4249V30.48H28.9549V1.53H27.4249V0H4.56492ZM16.7549 30.48H15.2349V28.96H16.7549V30.48ZM25.9049 27.43H6.09992V3.05H25.9099L25.9049 27.43Z" />
    <path
        d="M15.2352 12.19H16.7552V15.24H24.3752V7.62H16.7552V10.67H15.2352V7.62H7.61523V15.24H15.2352V12.19ZM18.2852 9.14999H22.8552V13.72H18.2852V9.14999ZM13.7152 13.72H9.14524V9.14999H13.7152V13.72Z" />
    <path d="M21.3347 10.67H19.8047V12.19H21.3347V10.67Z" />
    <path d="M19.8052 16.76H18.2852V18.29H19.8052V16.76Z" />
    <path d="M18.2854 18.29H15.2354V19.81H18.2854V18.29Z" />
    <path d="M12.185 10.67H10.665V12.19H12.185V10.67Z" />
</svg>