<svg width="73" height="17" viewBox="0 0 73 17" fill="white" xmlns="http://www.w3.org/2000/svg">
    <path
        d="M5.12 4.72C8.128 4.72 11.28 5.504 11.28 10.352C11.28 15.216 8.128 16 5.12 16H0.96V4.72H5.12ZM3.536 13.744H5.12C7.12 13.744 8.704 13.584 8.704 10.352C8.704 7.136 7.12 6.976 5.12 6.976H3.536V13.744ZM19.6054 4.72V6.976H17.0454V13.744H19.6054V16H11.9094V13.744H14.4694V6.976H11.9094V4.72H19.6054ZM20.0813 10.352C20.0813 6.912 22.4973 4.56 25.7613 4.56C28.5933 4.56 30.7853 6.288 31.1213 8.752H28.5613C28.3053 7.424 27.4573 6.816 25.7613 6.816C23.7933 6.816 22.6573 7.872 22.6573 10.352C22.6573 12.848 23.5693 13.904 25.4093 13.904C26.9453 13.904 27.9053 13.152 27.9053 11.632H25.2973V9.712H31.2013C32.0813 9.712 32.5613 10.192 32.5613 11.072V16H29.9853V12.112L30.4653 10.352H29.8253C29.8093 13.888 28.4173 16.16 25.3133 16.16C21.9373 16.16 20.0813 13.808 20.0813 10.352ZM41.5273 4.72V6.976H38.9673V13.744H41.5273V16H33.8313V13.744H36.3913V6.976H33.8313V4.72H41.5273ZM42.8081 4.72H52.7441V6.976H49.0641V16H46.5041V6.976H42.8081V4.72ZM60.2729 0.719999L60.7049 2.544L54.4489 3.92L54.0169 2.096L60.2729 0.719999ZM63.4249 16H60.8169L59.8089 12.384H55.2329L54.2249 16H51.6169L54.8649 4.72H60.1609L63.4249 16ZM57.1849 5.36L55.8569 10.144H59.1849L57.8409 5.36H57.1849ZM72.6178 16L65.9298 16.16C65.0498 16.176 64.5538 15.696 64.5538 14.816V4.72H67.1298V13.904L72.6178 13.744V16Z" />
</svg>