<svg width="123" height="112" viewBox="0 0 123 112" fill="none" xmlns="http://www.w3.org/2000/svg">
<path fill-rule="evenodd" clip-rule="evenodd" d="M82.6621 0H53.896V6.61292H46.6207V13.2258H38.0249V28.1049L35.379 28.1049V20.8306H19.8387V28.1049H12.5655V44.6371H19.8397V57.2016H26.783V65.1371H33.0653V68.4435H12.5653V75.7177H5.95161V81.3387H0.000946045V92.25L5.95161 92.25H19.8393V98.2016H26.7828V105.806H40.6697V111.097H68.1133V105.806H83.9844V98.8629H90.9277V91.9193H97.541V84.9758H104.152V69.1048H109.444V58.1935H118.371V43.6452H123V27.4435H118.371V20.8306H100.185V25.4597H97.541V13.2258H91.2578V6.61292H82.6621V0ZM74.725 28.1049L67.7832 28.1049V40.6694V44.6371V50.5887H74.725V28.1049ZM88.9429 28.1049H81.3379V54.5564H74.7266V61.8306V65.1371V66.7903H81.3387V50.5887H88.9429V28.1049Z" fill="white"/>
</svg>
