<svg width="26" height="33" viewBox="0 0 26 33" fill="none" xmlns="http://www.w3.org/2000/svg">
<path d="M25.1417 28.2871H23.5742V32.9999H25.1417V28.2871Z" fill="white"/>
<path d="M23.5749 26.7197H21.9971V28.2872H23.5749V26.7197Z" fill="white"/>
<path d="M21.9972 28.2871H20.4297V29.8546H21.9972V28.2871Z" fill="white"/>
<path d="M21.9972 25.1421H20.4297V26.7199H21.9972V25.1421Z" fill="white"/>
<path d="M20.4294 29.8545H18.8516V31.4323H20.4294V29.8545Z" fill="white"/>
<path d="M20.4295 23.5742H17.2842V25.1417H20.4295V23.5742Z" fill="white"/>
<path d="M20.4294 11.0034H18.8516V15.7162H20.4294V11.0034Z" fill="white"/>
<path d="M18.8517 31.4326H17.2842V33.0001H18.8517V31.4326Z" fill="white"/>
<path d="M18.8517 15.7163H17.2842V17.2838H18.8517V15.7163Z" fill="white"/>
<path d="M18.8518 9.42578H15.7168V11.0036H18.8518V9.42578Z" fill="white"/>
<path d="M17.2843 25.1421H15.7168V26.7199H17.2843V25.1421Z" fill="white"/>
<path d="M17.284 21.9966H14.1387V23.5744H17.284V21.9966Z" fill="white"/>
<path d="M17.2843 17.2837H15.7168V18.8615H17.2843V17.2837Z" fill="white"/>
<path d="M15.7165 26.7197H14.1387V28.2872H15.7165V26.7197Z" fill="white"/>
<path d="M15.7165 18.8618H14.1387V20.4293H15.7165V18.8618Z" fill="white"/>
<path d="M15.7165 11.0034H14.1387V12.5709H15.7165V11.0034Z" fill="white"/>
<path d="M14.1388 28.2871H12.5713V29.8546H14.1388V28.2871Z" fill="white"/>
<path d="M14.1388 20.4292H12.5713V21.9967H14.1388V20.4292Z" fill="white"/>
<path d="M14.1388 12.5708H12.5713V14.1383H14.1388V12.5708Z" fill="white"/>
<path d="M12.5714 21.9966H11.0039V23.5744H12.5714V21.9966Z" fill="white"/>
<path d="M12.5714 14.1382H11.0039V15.716H12.5714V14.1382Z" fill="white"/>
<path d="M11.0036 23.5742H9.42578V25.1417H11.0036V23.5742Z" fill="white"/>
<path d="M11.0036 15.7163H9.42578V17.2838H11.0036V15.7163Z" fill="white"/>
<path d="M9.4259 17.2837H7.8584V18.8615H9.4259V17.2837Z" fill="white"/>
<path d="M9.4259 12.5708H7.8584V15.7161H9.4259V12.5708Z" fill="white"/>
<path d="M7.85809 18.8618H6.28027V20.4293H7.85809V18.8618Z" fill="white"/>
<path d="M6.28039 0V1.5675H4.71289V4.71281H6.28039V6.29062H7.8582V7.85812H9.4257V9.42562H11.0035V7.85812H12.571V6.29062H14.1385V4.71281H15.7163V1.5675H14.1385V0H11.0035V1.5675H9.4257V0H6.28039Z" fill="#C35466"/>
<path d="M7.85832 11.0034H3.14551V12.5709H7.85832V11.0034Z" fill="white"/>
<path d="M4.71301 17.2837H3.14551V23.5743H4.71301V21.9965H6.28051V20.429H4.71301V17.2837Z" fill="white"/>
<path d="M3.14519 23.5742H1.56738V25.1417H3.14519V23.5742Z" fill="white"/>
<path d="M3.14519 12.5708H1.56738V17.2836H3.14519V12.5708Z" fill="white"/>
<path d="M1.5675 25.1421H0V33.0002H1.5675V25.1421Z" fill="white"/>
</svg>
