<svg xmlns="http://www.w3.org/2000/svg" viewBox="0 0 1416 702"><path fill="#262626" d="M0 0h1416v702H0z"/><path fill="none" stroke="#000" stroke-linecap="round" stroke-miterlimit="10" stroke-width="2" d="m715 263 37-495m58 521 375-226M882 417l206 78m-430 15-86 272m7-464-178-45m303 7-7-143m142 111L1163-9M784 401l189 126m-353-23L519 680m69-325-407 12m433-128L481 82m282 147 57-125m-19 261 452 68m-545-7 2 474M586 387 231 494m442-218L473-157m290 377 77-184m5 343 337 69m-483 15-21 274M533 378 86 448m537-260L555 56" paint-order="fill stroke markers"/><path fill="#FFF" stroke="#000" stroke-linecap="round" stroke-miterlimit="10" stroke-width="2" d="M-46 311H4c-22-1 31-32 53-30-34-3 23 5 56 9-7-1-12 23-4 23-5 0-28 8-23 8l-35-1 25 1-5 1h-5l-5 1-5 1-5 2-4 2-5 2-4 3-4 3-4 3-3 4-3 4-2 4-3 5-1 4-2 5-1 5-1 5-1 5-1 5-1 5-2 4-1 5-1 5v5h35l-19 2 29-2c-32 3 25-26 56-28-36 2-1-4 34-6-35 2-21-5 14-6-16 1 0-11 16-12-7 0 19-53 27-52v-5l1-5v-15l-1-5-1-5-2-5-2-4-2-5-3-4-3-4-3-4-4-3-4-3-4-3-4-3-4-2-5-2-5-2-4-1-5-2-5-1-5-1c-19-5-39-7-20-3-28-6-98-3-69 3-9-2-33 5-25 6l-4 2-5 2-5 2-4 2-4 2-5 3-4 2-4 3-4 4c-18-3-46 44-28 46l1 16m38 168 1 5 2 4 2 5 3 3 4 3-3 4h13l-31 9 40-7c-8 2 44-30 52-31-36 7-58-44-21-48-22 3-81 31-59 28l-3 25Z" paint-order="fill stroke markers"/><path fill="#FFF" d="m85 321-18-1-5 1h18Zm-72 73-15 1-1 5 15-1Z" paint-order="stroke fill markers"/><path fill="#FFF" stroke="#000" stroke-linecap="round" stroke-miterlimit="10" stroke-width="2" d="M215 311h30l-26-3 36 3h35l4-1 1-5 1-5 1-5 3-4-32-9 40 3 4-2 5-2 5-1h5l5-1h15l5 1h5l5 1 4 2 5 3 2 4 2 5v5l-1 5-2 4-19 2 12 5-4 2-5 2-5 1h-15l-5 1h-5l-5 1-5 1-4 2-5 2-5 2-4 3-33 2 26 4c-36-1-45 12-9 12-14 0-24 60-10 58-20 3 5 3 25 0-17 2 28 3 45 0-32 5-1-25 31-28-9 1 51-23 60-24-23 1-11-16 12-15-33-1-21-32 12-27-3-1-1-16 3-15-17-4-16-20 0-15l-36-15 35 5c-7-2-34-43-27-40l-23-10c-30-13-95-19-64-8-29-11-99 3-69 12-23-7-75 34-51 38-16-3-30 31-13 32l3 12m37 168 1 5 2 4 3 5 3 3 4 3 4 3-27 13 37-11c-29 11-4 10 25-1-4 1 30-53 34-54-23 6-77-17-53-21l-33 51Z" paint-order="fill stroke markers"/><path fill="#FFF" d="m259 311-13-1h5l13 1Zm115-24-13-3 3 4 13 3Zm-1 27-17-2-4 3 17 2Zm-75 22-22-1-4 4h23Z" paint-order="stroke fill markers"/><path fill="#FFF" stroke="#000" stroke-linecap="round" stroke-miterlimit="10" stroke-width="2" d="M1256 311h75l4-1 1-5 1-5 2-5 3-4 3-3 4-3 5-2 11-2-1-1c17-2 70 13 52 15 11-1-3 23-14 23 11 0-34 6-44 6 13 0-25 37-38 36 25 1 15 47-11 44l40 5c18 2 43 2 25 0 27 2 63-27 36-28 11 0 59-12 48-12 11 0 37-23 26-23l16-4-10-4 2-5 2-4 2-5 1-5 2-4 1-5 1-5v-5l1-5v-15c11-1-9-41-21-39 13-2-9-15-21-13 19-3-15-12-34-9 30-5-15-8-45-2 26-5-4-2-29 3 17-4-30 11-48 15 33-7 5 15-28 21 21-4 0 36-21 39l1 16m38 168 1 5 2 4 2 5 3 3 4 3 5 3 5 1 4 1 5 1h10c14 3 33-3 20-6 12 3 36-28 24-30 16 3 14-27-3-29 19 2-2-12-20-14 17 2-44 36-60 32l-2 21Z" paint-order="fill stroke markers"/><path fill="#FFF" d="m1411 290 21-2 1 5-21 2Z" paint-order="stroke fill markers"/><path fill="#FFF" stroke="#000" stroke-linecap="round" stroke-miterlimit="10" stroke-width="2" d="M475 311h65c-17-4 43-42 57-32-29-19-8 27 24 39-16-6-84 16-66 18-11-1-32 46-22 44-24 4-28 26-4 19-34 10 32 26 63 10-26 13-1-17 27-26-6 2 56-13 62-17l4-2 4-3 4-4 4-3 3-4c-16-2 16-37 13-21l8-39c5-27-28-79-25-52-1-16-52-32-46-18-9-20-42-21-30-3h-25l-5 1h-5l-5 1h-5l-5 1-5 1-4 1c-12-10-46 2-34 11-25-17-44-5-17 9-28-15-70 56-39 62l4 7m38 168 1 5 1 4 3 5 3 3 4 3 5 3 4 1 5 1 5 1h10l5-1 5-1-20 25 29-29c-9 10 10-6 19-16-15 16-9-8 7-24-13 12-60-26-44-33l-23 9-19 44Z" paint-order="fill stroke markers"/><path fill="#FFF" d="m534 393-21 6-1 5 21-6Z" paint-order="stroke fill markers"/><path fill="#262626" d="m516 472-7 4v5l7-4Z" paint-order="stroke fill markers"/><path fill="#FFF" stroke="#000" stroke-linecap="round" stroke-miterlimit="10" stroke-width="2" d="M996 311h40c31-4 80-28 49-23l58-7c16-2 15 36-1 37l-40 5c20-1-14 19-33 20 12 0-6 53-18 51l-1 5-1 5-1 5h80l1-5c34 4 64-21 31-24 14 1 34-3 19-3 32 1 63-16 31-16l4-4 3-3 4-4 3-4 3-4 2-4 3-5 2-4 2-5 1-5 1-4c37-3 39-40 3-35 36-5-2-58-37-50 7-2-12-9-19-7l8-4-17 2-5-1-5-1h-5l-5-1h-5l-5-1h-10c12-4-38 0-50 4 18-6-20 5-38 12 8-3-42 50-51 52l-1 26m38 168v5l2 4 3 5 3 3 4 3 4 3 5 1 5 1 5 1h10l5-1 5-1 5-2 4-2c34 13 50-1 16-12 26 9 36-32 9-38 25 6-18-18-43-23l22 6-32-4 18 7-27-3-5 3-4 3-3 3-3 4-3 4-2 5-2 4-1 5-1 5v5l1 6Z" paint-order="fill stroke markers"/><path fill="#FFF" d="m1077 292 6-1 4-4-6 1Zm74 88 15 2 5-1-15-1Zm26-157 11-3-5-1-11 3Zm-90-2 6-2-5 1-6 2Z" paint-order="stroke fill markers"/><path fill="#262626" d="m1052 502 5 2 5 1-6-2Z" paint-order="stroke fill markers"/><path fill="#FFF" stroke="#000" stroke-linecap="round" stroke-miterlimit="10" stroke-width="2" d="M735 311h30c17-12 33-10 15 0 3-2 38-7 36-6 19-8 60-35 42-26 25-12 46-10 20 1l38-12-29 15 4 3 3 4 2 5-1 5v5l-2 4-3 4-4 3-4 2-5 2-5 1h-10l22-5-32 6c32-7-22 48-55 43 32 5 24 38-5 25 21 10 47 30 26 19 29 15 70 12 40 0 31 12 44 0 12-10 13 4 28-15 14-18l32 4-22-4c22 3 51-4 30-6 34 4 68-21 33-21 33 0 57-71 24-64 30-7-10-74-37-60 13-6-12-15-24-8 9-6-41-12-49-5h-15l-5 1h-5c22-22-20-17-40 8 15-20-19-7-32 14 17-27-5-13-19 16 7-14-17 40-24 53l4 2m38 168 1 5 2 4 2 5 4 3 4 3 17 27-8-23c17 31 80 9 54-16 23 21 35-10 10-28 21 15-17-20-39-34 18 12-37 67-47 48v6Z" paint-order="fill stroke markers"/><path fill="#FFF" d="m879 283 11-5 5 2-12 5Zm-26 39 19-4h-5l-19 4Z" paint-order="stroke fill markers"/><path fill="#FFF" stroke="#000" stroke-linecap="round" stroke-miterlimit="10" stroke-width="2" d="M752 522c0 3-2 6-5 7s-6-1-6-5c-1-3 1-6 4-7 3 0 6 2 7 5m-143-48c-2 2-4 2-6 1v-6c2-1 4-2 6-1v6M485 277c-4-1-6-5-5-9 2-3 6-5 10-4 4 2 6 6 4 9-1 4-5 5-9 4m225-526c0-5 3-8 6-8s6 4 6 8c0 5-3 9-6 9-4 0-6-4-6-9m224 432c2-2 6-2 7 1 2 2 1 5-2 6-2 2-5 2-7 0-1-2 0-5 2-7M800 413c3 2 5 6 3 8-1 2-5 2-8-1-4-2-5-6-4-8 2-2 6-2 9 1m-108 6c-2 6-7 10-11 9-4-2-5-8-3-14 2-7 7-10 11-9s5 7 3 14m-3-70c-3-1-5-4-5-6 1-1 4-2 7-1s5 3 5 5c-1 2-4 3-7 2" paint-order="fill stroke markers"/></svg>