<svg xmlns="http://www.w3.org/2000/svg" width="30" height="30" fill="none"><path fill="#D9D9D9" d="M0 0v30h30V0H0Z"/><path fill="#fff" d="M13.344 20.32v-.638c0-.833.185-1.545.555-2.138.37-.592.824-1.11 1.36-1.555.556-.463 1.093-.916 1.611-1.36a9.337 9.337 0 0 0 1.333-1.389c.37-.5.555-1.092.555-1.777 0-1.073-.305-1.85-.916-2.332-.592-.481-1.685-.722-3.276-.722-.815 0-1.611.093-2.388.278a9.526 9.526 0 0 0-2.055.722V7.465c.592-.315 1.314-.555 2.166-.722.87-.185 1.805-.278 2.804-.278 1.98 0 3.462.445 4.443 1.333 1 .87 1.499 2.083 1.499 3.637 0 1.019-.26 1.852-.777 2.5-.5.629-1.167 1.295-2 1.999-.536.444-1.008.842-1.416 1.194a4.35 4.35 0 0 0-.916 1.138c-.204.389-.305.898-.305 1.527v.528h-2.277Zm-.111 4.305V22.82h2.499v1.805h-2.5Z"/></svg>