<svg width="30" height="31" viewBox="0 0 30 31" fill="none" xmlns="http://www.w3.org/2000/svg">
<path d="M-1.31134e-06 0.615234L0 30.6152L30 30.6152L30 0.615235L-1.31134e-06 0.615234Z" fill="#494848"/>
<path d="M15.2438 24.1561C17.2123 24.1561 18.961 23.5418 20.4899 22.3133C22.0175 21.0834 23.0449 19.5413 23.5723 17.687L21.8421 17.687C21.3457 19.1131 20.5102 20.2665 19.3358 21.1471C18.1614 22.0265 16.7974 22.4662 15.2438 22.4662C13.2864 22.4662 11.6217 21.7576 10.2497 20.3404C8.87647 18.9245 8.18984 17.2065 8.18984 15.1865C8.18984 13.1664 8.87647 11.4485 10.2497 10.0325C11.6217 8.61534 13.2864 7.90674 15.2438 7.90674C16.3763 7.90674 17.4593 8.19094 18.4929 8.75935C19.5254 9.32649 20.4182 10.072 21.1715 10.996L17.6668 10.996L17.6668 12.686L23.9353 12.686L23.9353 6.2168L22.2978 6.2168L22.2978 9.74961C21.4161 8.70072 20.3602 7.84938 19.1302 7.19558C17.9002 6.54306 16.6047 6.2168 15.2438 6.2168C12.848 6.2168 10.8005 7.09363 9.10123 8.84729C7.40195 10.6009 6.55231 12.714 6.55231 15.1865C6.55231 17.6589 7.40195 19.772 9.10123 21.5257C10.8005 23.2793 12.848 24.1561 15.2438 24.1561Z" fill="white"/>
</svg>
